<?xml version="1.0" encoding="UTF-8" standalone="no"?>
<!-- Created with Inkscape (http://www.inkscape.org/) -->

<svg
   width="600mm"
   height="150mm"
   viewBox="0 0 600 150"
   version="1.1"
   id="svg5"
   xml:space="preserve"
   inkscape:version="1.2.1 (9c6d41e410, 2022-07-14)"
   sodipodi:docname="torrentmanager_flat.svg"
   inkscape:export-filename="torrentmanager_flat.png"
   inkscape:export-xdpi="25.400002"
   inkscape:export-ydpi="25.400002"
   xmlns:inkscape="http://www.inkscape.org/namespaces/inkscape"
   xmlns:sodipodi="http://sodipodi.sourceforge.net/DTD/sodipodi-0.dtd"
   xmlns="http://www.w3.org/2000/svg"
   xmlns:svg="http://www.w3.org/2000/svg"><sodipodi:namedview
     id="namedview7"
     pagecolor="#ffffff"
     bordercolor="#666666"
     borderopacity="1.0"
     inkscape:showpageshadow="2"
     inkscape:pageopacity="0.0"
     inkscape:pagecheckerboard="0"
     inkscape:deskcolor="#d1d1d1"
     inkscape:document-units="mm"
     showgrid="false"
     inkscape:zoom="0.21959526"
     inkscape:cx="1505.0416"
     inkscape:cy="441.72174"
     inkscape:window-width="1366"
     inkscape:window-height="665"
     inkscape:window-x="0"
     inkscape:window-y="28"
     inkscape:window-maximized="1"
     inkscape:current-layer="layer1" /><defs
     id="defs2"><rect
       x="529.92474"
       y="137.64281"
       width="1986.4218"
       height="555.47807"
       id="rect227" /></defs><g
     inkscape:label="Layer 1"
     inkscape:groupmode="layer"
     id="layer1"><path
       d="m 94.602254,59.626627 c 0,-5.238536 0.0145,-10.474167 -0.009,-15.709685 -0.0146,-3.260844 -2.373921,-5.750052 -5.563747,-5.776647 a 858.14423,858.14423 0 0 0 -16.422189,0.0056 c -2.229055,0.02235 -3.964394,1.123374 -4.901542,3.157267 -0.413864,0.907281 -0.585377,2.004397 -0.594204,3.015476 -0.09721,9.519289 -0.04134,19.038575 -0.239447,28.551939 -0.07934,3.698281 -1.572745,6.982697 -4.345758,9.57839 -5.158735,4.824669 -13.495484,3.934821 -17.533785,-1.871433 -2.125572,-3.056814 -2.858736,-6.503805 -2.867607,-10.140075 -0.02682,-8.80676 0,-17.610613 -0.01453,-26.417373 -0.003,-3.376154 -2.362111,-5.862346 -5.637682,-5.883017 a 646.91118,646.91118 0 0 0 -16.244379,0.03352 c -1.034658,0.01117 -2.152188,0.455874 -3.06864,0.987728 -1.915679,1.106166 -2.527634,3.015476 -2.530585,5.105571 -0.0062,2.793685 0.130059,5.58737 0.124137,8.381053 -0.003,3.14844 -0.130059,6.296881 -0.138886,9.44532 -0.0062,2.344401 0.206932,4.697631 0.1095,7.036 -0.138997,3.210563 -0.236541,6.415204 0.248272,9.607999 1.123384,7.411422 4.197935,13.918244 9.270937,19.431649 a 42.405089,42.405089 0 0 0 14.858769,10.424001 c 7.290217,3.08934 14.825813,4.13874 22.603827,2.62217 9.176323,-1.79154 17.010499,-6.09587 23.325144,-13.060933 6.237785,-6.882249 9.415785,-14.979493 9.554745,-24.250502 0.0737,-4.759531 0.0124,-9.519174 0.0145,-14.278817 z m -73.15645,-15.80734 c 2.317741,0.04469 4.641382,0.01117 6.959115,0.01117 2.317742,0 4.641385,0.02235 6.959128,-0.01117 0.753867,-0.01117 1.06136,0.233523 1.055437,1.023483 a 1010.3846,1010.3846 0 0 0 0,12.310066 c 0,0.7475 -0.289725,0.975437 -1.005159,0.969851 a 1595.1192,1595.1191 0 0 0 -13.918242,0 c -0.70951,0.0028 -1.008063,-0.206708 -1.013984,-0.960912 A 908.54621,908.54621 0 0 0 20.328353,44.946459 c -0.02123,-0.851414 0.25721,-1.14706 1.117474,-1.129406 z m 67.279345,13.356567 c -0.009,0.686046 -0.242456,0.94862 -0.940124,0.946386 -4.700506,-0.02235 -9.398071,-0.02235 -14.095617,0 -0.650395,0 -0.898664,-0.245815 -0.895767,-0.896107 a 1599.1485,1599.1485 0 0 0 0,-12.490293 c -0.0036,-0.718449 0.31934,-0.916219 0.975548,-0.913983 2.350252,0.02235 4.700516,0.01117 7.050759,0.01117 2.288171,0 4.57929,0.03352 6.86748,-0.01117 0.869171,-0.02235 1.217978,0.212293 1.197283,1.147061 -0.08826,4.070803 -0.130058,8.141607 -0.15966,12.209507 z"
       fill="#733737"
       id="path2"
       style="fill:#aa0000;stroke-width:2.95629" /><text
       xml:space="preserve"
       transform="matrix(0.26458333,0,0,0.26458333,-56.360532,14.788654)"
       id="text225"
       style="font-style:normal;font-variant:normal;font-weight:normal;font-stretch:normal;font-size:197.333px;line-height:0.9;font-family:Aclonica;-inkscape-font-specification:'Aclonica, Normal';font-variant-ligatures:normal;font-variant-caps:normal;font-variant-numeric:normal;font-variant-east-asian:normal;white-space:pre;shape-inside:url(#rect227);display:inline;fill:#000000;fill-opacity:1;stroke:#000000;stroke-width:7.55906;stroke-dasharray:none;stroke-opacity:1"
       x="1268.2942"
       y="0"><tspan
         x="624.53736"
         y="277.73122"
         id="tspan772"><tspan
           dx="0 0 0 0 0 0 0 0 0 0 0 0 0 -0.00010681152"
           style="text-align:center;text-anchor:middle"
           id="tspan770">TorrentManager</tspan></tspan></text></g></svg>
